<?xml version="1.0" encoding="utf-8"?>
<!-- Generator: Adobe Illustrator 25.2.0, SVG Export Plug-In . SVG Version: 6.00 Build 0)  -->
<svg version="1.1" id="Layer_1" xmlns="http://www.w3.org/2000/svg" xmlns:xlink="http://www.w3.org/1999/xlink" x="0px" y="0px"
	 viewBox="0 0 48 48" style="enable-background:new 0 0 48 48;" xml:space="preserve">
<style type="text/css">
	.st0{fill:#FFFFFF;}
</style>
<path class="st0" d="M10.9,5.2h6.8v6.1h-6.8V5.2z M10.9,14.9h6.8v26h-6.8V14.9z M30.8,14.9h4.5v5.5h-4.5v13.4c0,1.4,0.7,2.1,2.1,2.1
	h2.4v4.7c-0.6,0.2-1.2,0.4-2.1,0.5c-0.8,0.2-1.6,0.3-2.3,0.3c-2.4,0-4.2-0.7-5.2-2c-1.1-1.3-1.6-3-1.6-5V20.5h-3.1v-5.5h3.3l1.2-7.3
	h5.5L30.8,14.9L30.8,14.9z"/>
</svg>
