<?xml version="1.0" encoding="utf-8"?>
<!-- Generator: Adobe Illustrator 25.2.0, SVG Export Plug-In . SVG Version: 6.00 Build 0)  -->
<svg version="1.1" id="Layer_1" xmlns="http://www.w3.org/2000/svg" xmlns:xlink="http://www.w3.org/1999/xlink" x="0px" y="0px"
	 viewBox="0 0 600 138.6" style="enable-background:new 0 0 600 138.6;" xml:space="preserve">
<style type="text/css">
	.st0{fill:#FFFFFF;}
</style>
<path class="st0" d="M95,9.2h21.2v19.2H95V9.2z M95,39.7h21.2v81.4H95V39.7z M157.3,39.7h14.1V57h-14.1V99c0,4.4,2.2,6.7,6.7,6.7
	h7.4v14.8c-1.8,0.6-3.9,1.2-6.6,1.7c-2.6,0.5-5.1,0.8-7.3,0.8c-7.6,0-13.1-2.1-16.4-6.2c-3.3-4.1-5-9.3-5-15.6V57h-9.7V39.7h10.2
	l3.6-22.9h17.2L157.3,39.7L157.3,39.7z M384.6,44.7c4.6,4.5,6.9,11.8,6.9,21.8v54.6h-21.2V71c0-9.6-4-14.4-11.9-14.4
	c-4.1,0-7.5,1.7-10.2,5c-2.7,3.4-4,7.5-4,12.5v47H323V71c0-9.6-4-14.4-11.9-14.4c-4.1,0-7.6,1.7-10.3,5c-2.7,3.4-4.1,7.5-4.1,12.5
	v47h-21.2V39.7h18.1l1.5,10.7h1.1c6-8.4,13.7-12.5,23.2-12.5c10.3,0,17.4,4.2,21.3,12.5h1.2c6.2-8.4,14.2-12.5,24.1-12.5
	C373.9,37.9,380,40.1,384.6,44.7z M444.2,37.9c-13.1,0-22.9,3.5-29.3,10.4c-6.4,6.9-9.7,17.6-9.7,32.2c0,14.5,3.2,25.3,9.7,32.2
	c6.4,6.9,16.2,10.4,29.3,10.4c10.8,0,19.5-2.6,26.1-7.7c6.6-5.1,9.9-12.8,9.9-23h-20.9c0,4.5-1.4,8-4.1,10.5s-6.3,3.7-10.8,3.7
	c-6.3,0-10.8-1.7-13.5-5.2c-2.7-3.5-4.1-8.8-4.3-16h53.5v-5c0-14.4-3-25.1-9-32.1C465.3,41.3,456.3,37.9,444.2,37.9z M427.1,71.3
	c0.6-5.7,2.3-9.9,5-12.7c2.7-2.8,6.8-4.2,12.1-4.2c9.4,0,14.1,5.6,14.1,16.9H427.1z M511.7,98.9v21.2h-21.3V98.9H511.7z M251.1,60.6
	V108h-49V60.6H251.1z"/>
</svg>
